<svg t="1584453924180" class="icon" viewBox="0 0 1024 1024" version="1.1" xmlns="http://www.w3.org/2000/svg" p-id="1213" width="128" height="128"><path d="M431.944795 848.634071A424.251158 424.251158 0 1 1 841.439391 533.607823 36.100875 36.100875 0 0 1 771.082211 515.030365a352.181163 352.181163 0 1 0-637.299022 98.025734 352.312918 352.312918 0 0 0 527.678847 77.867215 36.100875 36.100875 0 1 1 47.168296 54.678333 424.119403 424.119403 0 0 1-276.685537 103.032424z" fill="#0060F7" p-id="1214"></path><path d="M980.967955 1024a36.100875 36.100875 0 0 1-23.979414-9.486361L767.12956 846.394236a36.100875 36.100875 0 0 1 47.958827-54.019558l189.858981 168.514668a36.100875 36.100875 0 0 1-23.979413 63.110654zM645.783189 466.808029a36.100875 36.100875 0 0 1-36.100875-36.100875 173.126094 173.126094 0 0 0-172.862584-172.862584 36.100875 36.100875 0 1 1 0-72.20175 245.327844 245.327844 0 0 1 245.064334 245.064334 36.100875 36.100875 0 0 1-36.100875 36.100875z" fill="#FF4B9D" p-id="1215"></path></svg>